<svg width="24" height="24" viewBox="0 0 24 24" fill="none" xmlns="http://www.w3.org/2000/svg">
<g id="Cross icon">
<rect width="24" height="24" rx="10" fill="#F2F4F7"/>
<path id="Vector" d="M16.7064 15.6518L13.0535 12L16.7064 8.34818C16.7756 8.27901 16.8306 8.19687 16.8681 8.10646C16.9056 8.01605 16.9249 7.91913 16.925 7.82124C16.9251 7.72336 16.9058 7.62642 16.8684 7.53596C16.831 7.4455 16.7762 7.3633 16.707 7.29404C16.6378 7.22478 16.5557 7.16982 16.4653 7.13231C16.3749 7.09479 16.278 7.07545 16.1801 7.07539C16.0822 7.07533 15.9852 7.09455 15.8948 7.13196C15.8043 7.16936 15.7221 7.22422 15.6529 7.29339L15.6528 7.29344L11.9999 10.9464L8.34811 7.29346L8.3481 7.29344C8.20824 7.15358 8.01855 7.07501 7.82076 7.07501C7.62297 7.07501 7.43328 7.15358 7.29343 7.29344C7.15357 7.4333 7.075 7.623 7.075 7.82079C7.075 8.01858 7.15357 8.20827 7.29343 8.34813L7.29344 8.34814L10.9463 12L7.29344 15.6519L7.29343 15.6519C7.22418 15.7211 7.16924 15.8034 7.13176 15.8938C7.09429 15.9843 7.075 16.0813 7.075 16.1792C7.075 16.2772 7.09429 16.3741 7.13176 16.4646L7.24725 16.4168L7.13176 16.4646C7.16924 16.5551 7.22417 16.6373 7.29343 16.7066C7.43328 16.8464 7.62297 16.925 7.82076 16.925C7.9187 16.925 8.01567 16.9057 8.10615 16.8682C8.19663 16.8308 8.27885 16.7758 8.3481 16.7066L8.34811 16.7066L11.9999 13.0536L15.6528 16.7066L15.6529 16.7066C15.7927 16.8463 15.9824 16.9248 16.1801 16.9246C16.3778 16.9245 16.5673 16.8459 16.707 16.706C16.8467 16.5661 16.9251 16.3765 16.925 16.1788C16.9249 15.9811 16.8462 15.7915 16.7064 15.6518Z" fill="#667085" stroke="#667085" stroke-width="0.25"/>
</g>
</svg>
